<?xml version="1.0" encoding="UTF-8" standalone="no"?>
<svg
   id="master-artboard"
   viewBox="0 0 15.999997 16.000019"
   version="1.1"
   x="0px"
   y="0px"
   width="15.999997"
   height="16.000019"
   xmlns="http://www.w3.org/2000/svg"
   xmlns:svg="http://www.w3.org/2000/svg">
  <defs
     id="defs37" />
  <rect
     id="ee-background"
     x="1.0087981e-06"
     y="2.155163e-05"
     width="1400"
     height="980"
     style="fill:#ffffff;fill-opacity:0" />
  <g
     transform="matrix(4.824924,0,0,4.824924,34.815501,41.378376)"
     id="g30">
    <metadata
       id="metadata8" />
    <path
       d="M 249.57661,60.895718"
       style="fill:#4cc078;fill-opacity:1;stroke:#000000;stroke-width:0;stroke-opacity:1;paint-order:stroke"
       id="path26" />
    <g
       id="g12"
       transform="matrix(0.00580128,0,0,-0.00577657,-7.2157616,-5.2598492)">
      <path
         d="M 57.0664,389.465 438.313,66.7305 c 18.175,-18.3711 48.48,-18 66.66,0.1758 18.293,18.3203 18.281,48.5737 0,66.8637 L 177.887,517 H 57.0664 Z M 199.59,191.484 152.68,88.0664 C 139.688,61.1719 115.508,45.1563 85.9727,57.1406 61.1719,67.2188 57.0586,97.8125 57.0586,125.176 c 0,62.324 0.0078,124.64 0.0078,186.961 z M 0,574.063 C 0,419.074 0,264.086 0,109.094 0,64.2305 27.3398,24.8555 67.0938,9.21094 122.313,-12.5273 178.988,15.5391 202.832,68.8281 L 241.746,155.813 386.199,33.5273 c 45.324,-38.37105 112.539,-48.7109 156.383,-4.8828 43.016,43.0469 36.145,113.4455 -6.828,156.3945 l -125.359,147.07 93.234,39.121 c 52.48,22.024 81.359,80.508 59.613,135.739 -15.644,39.761 -55.019,67.094 -99.875,67.094 H 0 Z M 252.813,517 374.543,374.18 484.391,421.387 c 20.558,9.929 34.343,22.633 34.343,47.359 0,24.738 -19.64,48.266 -46.449,48.254 H 252.813 v 0"
         style="fill:#4cc078;fill-opacity:1;fill-rule:evenodd;stroke:#000000;stroke-width:0;stroke-opacity:1"
         id="path14" />
    </g>
  </g>
  <path
     d="M 548.33948,172.8967"
     style="fill:#4cc078;fill-opacity:1;stroke:#000000;stroke-width:0;stroke-opacity:1;paint-order:stroke"
     id="path32" />
</svg>
