<?xml version="1.0" encoding="utf-8"?>
<!-- Generator: Adobe Illustrator 16.0.0, SVG Export Plug-In . SVG Version: 6.00 Build 0)  -->
<!DOCTYPE svg PUBLIC "-//W3C//DTD SVG 1.1//EN" "http://www.w3.org/Graphics/SVG/1.1/DTD/svg11.dtd">
<svg version="1.1" id="Layer_1" xmlns="http://www.w3.org/2000/svg" xmlns:xlink="http://www.w3.org/1999/xlink" x="0px" y="0px"
	 width="165.125px" height="43.558px" viewBox="0 0 165.125 43.558" enable-background="new 0 0 165.125 43.558"
	 xml:space="preserve">
<path fill-rule="evenodd" clip-rule="evenodd" fill="#34B880" d="M19.183,4.33l9.235,10.836l8.335-3.582
	c1.561-0.753,2.606-1.717,2.606-3.593c0-1.877-1.491-3.662-3.524-3.661H19.183L19.183,4.33z M0,0h35.159
	c3.404,0,6.391,2.074,7.578,5.091c1.65,4.19-0.542,8.628-4.523,10.299l-7.074,2.969l9.512,11.159
	c3.26,3.259,3.782,8.601,0.518,11.867c-3.327,3.324-8.427,2.541-11.866-0.371l-10.961-9.278l-2.953,6.6
	c-1.809,4.044-6.109,6.173-10.299,4.524C2.075,41.672,0,38.684,0,35.281C0,23.52,0,11.76,0,0L0,0z M15.145,29.028L4.331,19.874
	c0,5.361-0.001,10.722-0.001,16.083c0,2.034,1.785,3.524,3.662,3.524c1.876,0,2.84-1.046,3.594-2.606L15.145,29.028L15.145,29.028z
	 M4.331,14.007V4.33h9.167l24.818,29.078c1.387,1.388,1.388,3.684,0,5.073c-1.379,1.379-3.678,1.407-5.058,0.014L4.331,14.007z"/>
<path fill-rule="evenodd" clip-rule="evenodd" d="M79.101,9.322c-1.826-1.811-4.021-2.729-6.604-2.729H60.699
	c-1.186,0-2.154,0.86-2.154,2.071v25.834c0,1.14,0.93,2.07,2.067,2.07c1.14,0,2.069-0.931,2.069-2.07V25.95h5.683l9.703,9.721
	c1.119,1.141,2.499,0.879,3.216,0.088c0.636-0.701,0.686-1.834-0.012-2.507l-7.629-7.39c4.618-0.578,8.153-4.396,8.212-9.079
	C81.891,13.991,80.959,11.166,79.101,9.322L79.101,9.322z M110.953,6.593c1.137,0,2.068,0.937,2.068,2.071v16.02
	c0,1.903-0.281,3.619-0.838,5.129c-0.555,1.508-1.355,2.795-2.397,3.852c-2.388,2.419-5.729,3.301-9.047,3.301
	c-3.333,0-6.656-0.891-9.067-3.301c-1.056-1.057-1.865-2.344-2.42-3.852c-0.556-1.51-0.838-3.221-0.838-5.129
	c0-2.055,0-4.108,0-6.162c0-3.286,0-6.571,0-9.858c0-1.14,0.932-2.071,2.069-2.071s2.069,0.933,2.069,2.071
	c0,5.194,0,10.386,0,15.581c0,2.846,0.719,5.012,2.156,6.492c1.438,1.481,3.447,2.223,6.03,2.223s4.587-0.742,6.01-2.223
	c1.422-1.479,2.134-3.646,2.134-6.492c0-5.194,0-10.387,0-15.581C108.882,7.524,109.814,6.593,110.953,6.593L110.953,6.593z
	 M163.275,6.593c1.02,0,1.85,0.832,1.85,1.848c0,1.017-0.832,1.85-1.85,1.85c-5.252,0-10.504,0-15.758,0v9.376h13.426
	c1.018,0,1.849,0.832,1.849,1.849s-0.832,1.848-1.849,1.848c-4.476,0-8.951,0-13.426,0v9.508c5.254,0,10.506,0,15.758,0
	c1.02,0,1.85,0.833,1.85,1.849c0,1.017-0.832,1.849-1.85,1.849c-6.016,0-12.031,0-18.047,0c-1.018,0-1.848-0.832-1.848-1.849
	c0-8.686,0-17.372,0-26.056c0-1.14,0.93-2.071,2.068-2.071C151.39,6.593,157.333,6.593,163.275,6.593L163.275,6.593z
	 M120.793,34.499c0-8.611,0-17.223,0-25.834c0-1.14,0.93-2.071,2.067-2.071c1.14,0,2.069,0.933,2.069,2.071
	c0,8.069,0,16.138,0,24.208c3.83,0,7.659,0,11.489,0c1.018,0,1.85,0.833,1.85,1.849c0,1.017-0.833,1.849-1.85,1.849
	c-4.52,0-9.038,0-13.559,0C121.515,36.569,120.793,35.816,120.793,34.499L120.793,34.499z M71.618,22.252h-8.937V10.291h8.937
	c3.658,0,6.072,2.825,6.02,6.398C77.593,19.928,74.724,22.252,71.618,22.252z"/>
</svg>
